<?xml version="1.0" encoding="utf-8"?>
<svg viewBox="0 0 16 16" fill="#000" xmlns="http://www.w3.org/2000/svg">
  <path d="M 0.252 0.334 C 0.642 -0.056 1.276 -0.056 1.666 0.334 L 7.959 6.627 L 14.252 0.334 C 14.787 -0.219 15.72 0.013 15.933 0.753 C 16.034 1.109 15.932 1.491 15.666 1.748 L 9.373 8.041 L 15.666 14.334 C 16.201 14.888 15.936 15.813 15.189 15.999 C 14.854 16.083 14.5 15.988 14.252 15.748 L 7.959 9.455 L 1.666 15.748 C 1.112 16.283 0.187 16.018 0.001 15.271 C -0.082 14.936 0.012 14.582 0.252 14.334 L 6.545 8.041 L 0.252 1.748 C -0.138 1.358 -0.138 0.725 0.252 0.334 Z" style="fill: rgb(248, 248, 248);"/>
</svg>